<svg xmlns="http://www.w3.org/2000/svg" xmlns:xlink="http://www.w3.org/1999/xlink" width="500" zoomAndPan="magnify" viewBox="0 0 375 374.999991" height="500" preserveAspectRatio="xMidYMid meet" version="1.2"><defs><clipPath id="127475b236"><path d="M 57.351562 172.328125 L 316.363281 172.328125 L 316.363281 202.378906 L 57.351562 202.378906 Z M 57.351562 172.328125 "/></clipPath></defs><g id="78a65cfd47"><rect x="0" width="375" y="0" height="374.999991" style="fill:#ffffff;fill-opacity:1;stroke:none;"/><rect x="0" width="375" y="0" height="374.999991" style="fill:#fafafa;fill-opacity:1;stroke:none;"/><g style="fill:#000000;fill-opacity:1;"><g transform="translate(168.833749, 242.722733)"><path style="stroke:none" d="M 5.8125 -2.734375 L 5.8125 0 L 35.921875 0 L 35.921875 -2.734375 L 22.234375 -2.734375 L 22.234375 -109.296875 L 60.375 0 L 62.609375 0 L 100.75 -109.984375 L 100.75 -2.734375 L 87.0625 -2.734375 L 87.0625 0 L 131.015625 0 L 131.015625 -2.734375 L 117.34375 -2.734375 L 117.34375 -112.203125 L 131.015625 -112.203125 L 131.015625 -114.9375 L 99.375 -114.9375 L 68.9375 -27.03125 L 37.453125 -114.9375 L 5.8125 -114.9375 L 5.8125 -112.203125 L 19.5 -112.203125 L 19.5 -2.734375 Z M 5.8125 -2.734375 "/></g></g><g style="fill:#000000;fill-opacity:1;"><g transform="translate(76.067657, 245.249984)"><path style="stroke:none" d="M 91.734375 -7.46875 C 91.390625 -8.625 91.128906 -10.242188 90.953125 -12.328125 C 90.785156 -14.421875 90.671875 -16.679688 90.609375 -19.109375 C 90.554688 -21.546875 90.5 -24.035156 90.4375 -26.578125 C 90.375 -29.128906 90.171875 -31.5625 89.828125 -33.875 C 89.128906 -38.507812 87.96875 -42.332031 86.34375 -45.34375 C 84.726562 -48.351562 82.757812 -50.8125 80.4375 -52.71875 C 78.125 -54.632812 75.460938 -56.144531 72.453125 -57.25 C 69.441406 -58.351562 66.195312 -59.367188 62.71875 -60.296875 C 71.757812 -61.910156 78.710938 -65.117188 83.578125 -69.921875 C 88.441406 -74.734375 90.875 -80.789062 90.875 -88.09375 C 90.875 -92.613281 89.914062 -96.664062 88 -100.25 C 86.09375 -103.84375 83.515625 -106.851562 80.265625 -109.28125 C 77.023438 -111.71875 73.175781 -113.570312 68.71875 -114.84375 C 64.257812 -116.125 59.539062 -116.765625 54.5625 -116.765625 L 5.5625 -116.765625 L 5.5625 -113.984375 L 20.5 -113.984375 L 20.5 -2.78125 L 5.5625 -2.78125 L 5.5625 0 L 52.296875 0 L 52.296875 -2.78125 L 37.359375 -2.78125 L 37.359375 -59.59375 L 51.78125 -59.59375 C 53.632812 -59.59375 55.601562 -59.273438 57.6875 -58.640625 C 59.769531 -58.003906 61.707031 -56.785156 63.5 -54.984375 C 65.300781 -53.191406 66.863281 -50.703125 68.1875 -47.515625 C 69.519531 -44.335938 70.476562 -40.253906 71.0625 -35.265625 C 71.40625 -32.253906 71.609375 -29.1875 71.671875 -26.0625 C 71.734375 -22.9375 71.90625 -19.925781 72.1875 -17.03125 C 72.476562 -14.132812 73 -11.46875 73.75 -9.03125 C 74.507812 -6.601562 75.695312 -4.519531 77.3125 -2.78125 C 78.820312 -1.15625 80.585938 -0.0546875 82.609375 0.515625 C 84.640625 1.097656 86.816406 1.390625 89.140625 1.390625 C 91.109375 1.390625 93.078125 1.1875 95.046875 0.78125 C 97.015625 0.375 98.835938 -0.113281 100.515625 -0.6875 C 102.191406 -1.269531 103.640625 -1.878906 104.859375 -2.515625 C 106.078125 -3.148438 106.972656 -3.757812 107.546875 -4.34375 C 107.898438 -4.6875 108.078125 -5.035156 108.078125 -5.390625 C 108.078125 -5.734375 107.898438 -5.90625 107.546875 -5.90625 C 107.316406 -5.90625 106.972656 -5.789062 106.515625 -5.5625 C 104.191406 -3.9375 101.582031 -3.125 98.6875 -3.125 C 95.09375 -3.125 92.773438 -4.570312 91.734375 -7.46875 Z M 37.359375 -62.375 L 37.359375 -113.984375 L 54.5625 -113.984375 C 67.757812 -113.984375 74.359375 -106.394531 74.359375 -91.21875 L 74.359375 -84.96875 C 74.359375 -69.90625 67.757812 -62.375 54.5625 -62.375 Z M 37.359375 -62.375 "/></g></g><g clip-rule="nonzero" clip-path="url(#127475b236)"><path style=" stroke:none;fill-rule:nonzero;fill:#fafafa;fill-opacity:1;" d="M 57.351562 172.328125 L 316.421875 172.328125 L 316.421875 202.378906 L 57.351562 202.378906 Z M 57.351562 172.328125 "/></g></g></svg>